<?xml version="1.0" standalone="no"?>
<!DOCTYPE svg PUBLIC "-//W3C//DTD SVG 20010904//EN"
 "http://www.w3.org/TR/2001/REC-SVG-20010904/DTD/svg10.dtd">
<svg version="1.0" xmlns="http://www.w3.org/2000/svg"
 width="1060.000000pt" height="809.000000pt" viewBox="0 0 1060.000000 809.000000"
 preserveAspectRatio="xMidYMid meet">
<metadata>
Created by potrace 1.16, written by Peter Selinger 2001-2019
</metadata>
<g transform="translate(0.000000,809.000000) scale(0.100000,-0.100000)"
fill="#000000" stroke="none">
<path d="M3805 7153 c-495 -30 -703 -66 -885 -155 -98 -47 -114 -59 -231 -177
-84 -83 -146 -156 -184 -214 -92 -142 -186 -355 -303 -688 l-57 -163 -72 -12
c-127 -21 -237 -86 -344 -202 -101 -108 -199 -274 -199 -334 1 -30 4 -25 36
42 93 199 227 351 374 425 30 15 93 35 140 45 l85 17 62 174 c173 484 259 655
419 834 254 286 452 347 1239 386 283 13 1403 7 1650 -10 243 -17 537 -48 770
-82 220 -31 575 -98 575 -108 0 -13 -637 7 -760 23 -250 33 -360 37 -735 25
-284 -10 -395 -10 -525 0 -388 29 -435 31 -594 21 -168 -11 -374 -41 -448 -65
-24 -8 -31 -12 -15 -10 297 55 627 69 931 41 145 -14 274 -17 685 -15 478 2
515 1 666 -20 126 -18 237 -24 525 -31 236 -6 388 -14 430 -22 l65 -14 -110
-7 c-60 -5 -265 -20 -455 -34 -268 -21 -418 -27 -670 -27 l-325 -1 -265 43
c-604 96 -1099 125 -1338 77 -401 -79 -769 -336 -1023 -714 -39 -57 -84 -131
-101 -165 -37 -74 -26 -64 32 29 149 242 370 474 585 615 160 104 359 182 544
214 226 38 747 5 1328 -84 384 -60 561 -60 1228 -4 165 14 382 28 482 31 173
6 184 5 240 -17 224 -89 441 -258 557 -435 46 -70 63 -120 90 -256 20 -99 38
-151 108 -306 l83 -188 64 -17 c171 -46 294 -153 355 -308 23 -58 46 -180 35
-180 -5 0 -9 8 -9 17 0 9 -20 58 -45 109 -74 154 -200 257 -344 284 -71 13
-131 13 -111 0 8 -5 29 -10 45 -10 36 0 110 -22 156 -46 140 -71 234 -201 293
-405 22 -77 23 -93 15 -170 -26 -237 -110 -432 -259 -603 l-65 -74 -11 83
c-10 76 -51 232 -59 224 -1 -2 5 -35 15 -74 28 -105 24 -206 -15 -441 -49
-299 -64 -431 -74 -680 -9 -208 -17 -260 -55 -389 -4 -11 3 -2 13 20 11 22 27
72 36 110 9 39 19 77 22 85 9 25 86 -303 118 -505 26 -159 31 -438 11 -572
-80 -543 -406 -765 -1191 -813 -661 -41 -1598 116 -2185 366 -197 84 -717 359
-1055 557 -575 338 -982 634 -1281 932 -219 218 -316 355 -374 526 -25 76 -29
82 -83 117 -226 149 -384 357 -489 642 l-38 105 3 -55 c5 -71 82 -245 163
-367 70 -106 233 -273 328 -336 66 -44 69 -47 93 -119 107 -319 487 -699 1133
-1134 520 -350 1355 -808 1726 -947 365 -136 817 -236 1329 -294 202 -22 772
-25 935 -5 506 64 777 213 920 505 139 284 143 695 13 1232 -69 285 -76 370
-48 629 13 124 69 484 81 528 3 9 37 52 76 95 205 226 298 470 298 783 0 207
-50 350 -161 461 -61 61 -188 131 -263 145 -37 6 -40 10 -83 103 -96 207 -125
284 -143 384 -24 134 -44 188 -94 267 -81 125 -295 314 -435 384 -354 178
-1126 322 -1966 366 -166 9 -1496 11 -1630 3z"/>
<path d="M4155 6779 c-407 -52 -859 -370 -1043 -734 -43 -85 -62 -159 -62
-234 1 -154 88 -218 170 -125 38 44 40 59 1 17 -120 -132 -201 67 -112 278
106 253 367 512 666 661 306 153 587 165 1195 53 426 -79 582 -100 840 -111
200 -8 428 7 875 57 400 46 560 52 668 26 220 -54 347 -201 397 -462 49 -257
90 -377 149 -445 17 -19 14 -9 -12 45 -47 97 -63 151 -87 289 -28 166 -46 230
-87 314 -67 136 -182 226 -343 269 -99 26 -287 21 -605 -15 -826 -95 -1052
-91 -1715 33 -489 92 -687 110 -895 84z"/>
<path d="M4195 6560 c-393 -45 -677 -203 -803 -449 -22 -42 -43 -87 -46 -101
-4 -14 10 7 31 47 86 162 201 272 378 359 205 100 431 140 748 132 100 -2 162
-1 137 3 -75 13 -360 18 -445 9z"/>
<path d="M6328 6485 c-191 -32 -312 -97 -403 -215 -67 -87 -105 -174 -105
-238 0 -53 20 -111 45 -132 7 -6 2 11 -11 37 -13 25 -24 63 -24 82 2 110 126
287 252 359 166 95 435 120 796 76 68 -9 126 -14 128 -11 6 5 -168 35 -276 47
-115 13 -308 11 -402 -5z"/>
<path d="M5035 6393 c149 -196 233 -395 223 -533 -1 -27 0 -50 3 -50 3 0 16
34 29 76 33 113 26 216 -21 304 -40 76 -110 150 -196 208 -34 23 -65 42 -68
42 -4 0 9 -21 30 -47z"/>
<path d="M7441 6251 c186 -170 300 -372 300 -531 1 -71 -10 -107 -46 -160 -33
-47 -72 -69 -142 -79 -58 -8 -58 -8 -28 -20 17 -7 55 -15 86 -18 53 -5 58 -4
95 29 45 41 71 55 128 72 l41 13 -38 8 c-21 4 -54 5 -73 2 -19 -3 -34 -4 -34
-3 0 2 8 18 17 37 11 20 19 64 21 109 5 92 -25 191 -90 301 -49 82 -180 221
-253 268 -50 33 -50 33 16 -28z"/>
<path d="M4720 6187 c0 -3 39 -34 88 -70 121 -90 227 -203 266 -286 29 -62 31
-73 31 -179 0 -98 -3 -115 -18 -127 -20 -14 -57 -9 -62 9 -1 6 -8 40 -14 76
-7 36 -31 103 -53 149 -75 158 -247 295 -419 336 -82 19 -216 19 -299 -1 -175
-41 -340 -172 -419 -334 -95 -194 -93 -417 4 -428 52 -6 76 9 209 136 192 183
291 235 401 212 87 -19 143 -57 289 -198 146 -140 166 -154 217 -150 36 2 46
8 61 34 10 17 19 54 20 82 l3 52 37 0 c56 0 72 37 72 165 0 80 -4 111 -22 155
-47 118 -189 264 -324 335 -38 20 -68 34 -68 32z m-34 -276 c60 -44 139 -132
167 -187 42 -84 85 -272 59 -263 -6 2 -58 51 -117 108 l-106 104 11 49 c16 63
0 128 -41 181 -36 44 -26 47 27 8z m-701 -170 c0 -56 4 -75 22 -99 l22 -30
-82 -78 c-79 -76 -82 -78 -85 -52 -8 68 38 218 88 287 17 23 31 41 33 41 1 0
2 -31 2 -69z"/>
<path d="M7055 6157 c169 -56 321 -157 386 -258 31 -49 34 -60 34 -129 0 -57
-5 -83 -18 -104 l-19 -28 -40 83 c-75 155 -233 283 -393 319 -27 7 -91 12
-140 12 -222 -1 -419 -126 -514 -326 -45 -93 -61 -160 -61 -251 0 -77 11 -109
44 -130 46 -30 77 -13 218 121 268 254 369 258 612 25 143 -136 148 -141 190
-155 l36 -12 -32 -33 c-48 -49 -134 -88 -249 -112 -91 -18 -126 -20 -279 -16
-175 5 -335 28 -431 62 -23 9 -44 13 -46 11 -9 -8 55 -36 129 -55 138 -37 220
-46 403 -45 194 0 271 12 373 59 151 69 223 201 195 355 -8 40 -5 51 22 100
76 140 7 291 -193 418 -63 40 -197 94 -262 106 -19 3 -3 -5 35 -17z m-60 -221
c184 -49 328 -211 354 -401 6 -38 8 -71 6 -73 -2 -3 -48 37 -102 88 -99 94
-220 182 -267 194 -19 5 -28 16 -37 49 -15 56 -36 96 -67 130 l-26 27 45 0
c24 0 67 -6 94 -14z"/>
<path d="M6196 5959 c-127 -118 -159 -244 -96 -376 16 -35 31 -63 32 -63 2 0
4 62 3 138 0 131 1 139 29 196 16 32 48 83 72 112 25 30 40 54 34 54 -5 0 -39
-27 -74 -61z"/>
<path d="M5855 5768 c89 -115 140 -231 188 -425 40 -160 45 -173 93 -238 49
-66 135 -201 164 -254 11 -22 8 -21 -36 11 -106 77 -220 118 -329 118 -112 0
-285 -54 -434 -136 -35 -19 -64 -34 -65 -32 -54 77 -76 102 -108 124 -21 15
-37 30 -35 33 1 3 26 53 55 111 72 147 83 202 73 375 l-8 140 -1 -151 c-2
-168 -12 -215 -69 -328 -65 -130 -79 -146 -121 -147 l-37 0 42 -13 c65 -21
109 -53 149 -109 21 -29 41 -56 44 -60 4 -5 59 16 121 46 337 163 551 151 745
-38 81 -79 94 -121 70 -215 -31 -122 -133 -264 -226 -314 -99 -54 -233 -42
-327 30 -20 15 -34 21 -31 13 9 -26 89 -79 145 -95 107 -31 213 -2 304 83 l51
48 68 -4 c85 -3 139 18 192 77 42 46 57 87 39 105 -16 16 -105 12 -158 -7 -24
-8 -43 -13 -43 -10 0 3 7 31 16 61 19 65 14 125 -16 183 -27 53 -25 65 10 80
28 12 58 10 105 -5 19 -6 19 -6 2 8 -29 24 -82 29 -121 13 l-35 -14 -52 91
c-28 51 -78 131 -110 178 -50 72 -63 100 -80 175 -45 190 -61 242 -109 339
-47 96 -120 193 -162 216 -11 6 5 -22 37 -63z"/>
<path d="M3284 5623 c9 -37 37 -75 67 -91 40 -21 123 -10 171 24 61 43 59 52
-11 40 -70 -11 -155 4 -194 35 -34 26 -40 24 -33 -8z"/>
<path d="M2340 5604 c-14 -2 -65 -9 -115 -15 -186 -23 -320 -84 -431 -194
-118 -117 -175 -249 -194 -443 -12 -129 -12 -124 -2 -118 5 3 12 45 15 93 15
202 69 327 191 448 155 154 341 208 721 208 239 1 416 -26 685 -103 137 -39
147 -37 30 6 -234 86 -462 125 -718 123 -87 -1 -168 -3 -182 -5z"/>
<path d="M7887 5386 c-46 -17 -63 -30 -99 -80 -41 -57 -34 -62 15 -9 48 52 89
73 144 73 54 0 134 -41 171 -86 122 -148 117 -480 -9 -588 -64 -54 -176 -74
-239 -41 l-28 15 5 81 c8 104 -8 103 -47 -1 -151 -414 -440 -592 -1080 -664
-390 -44 -1035 -47 -1330 -7 -474 65 -935 182 -1467 372 -367 131 -692 262
-953 385 l-116 55 4 65 c5 74 -16 145 -51 169 -12 8 -24 15 -27 15 -3 0 -3
-48 -2 -106 4 -119 -10 -179 -59 -250 -56 -82 -174 -136 -334 -153 l-80 -8
102 -2 102 -1 6 -37 c65 -386 346 -887 681 -1213 113 -110 106 -96 -24 51
-311 353 -526 732 -618 1089 -14 56 -24 104 -20 107 3 3 24 9 48 13 24 5 51
12 60 15 13 5 19 0 23 -22 45 -214 132 -404 271 -593 266 -363 776 -790 1192
-999 320 -160 686 -263 1137 -318 213 -25 875 -26 1115 0 472 51 1006 160
1142 234 163 89 262 343 304 774 13 143 15 228 9 479 -8 322 -8 420 -2 427 2
2 29 -3 60 -11 30 -8 73 -12 96 -9 l41 6 0 -44 c0 -278 -31 -942 -56 -1189
-16 -165 -16 -184 -4 -152 41 100 73 514 86 1093 l7 305 35 20 c84 46 132 152
140 309 7 153 -25 265 -98 349 -64 72 -178 109 -253 82z m-4775 -717 c128 -78
252 -154 276 -168 23 -14 42 -30 42 -35 0 -14 -42 -130 -51 -140 -5 -6 -37 -4
-81 3 -204 36 -388 157 -478 314 l-27 48 31 59 c17 33 36 60 43 60 6 0 116
-64 245 -141z m924 -373 c159 -57 322 -114 362 -126 40 -12 72 -26 72 -31 0
-4 -8 -43 -17 -85 -26 -120 -30 -120 -398 9 -279 97 -347 135 -370 207 -7 21
37 130 53 130 4 0 139 -47 298 -104z m3529 -82 c14 -38 25 -76 25 -85 0 -32
-141 -134 -176 -127 -16 3 -62 111 -64 145 0 7 18 22 40 33 21 11 61 42 87 69
26 27 52 45 56 41 4 -4 19 -38 32 -76z m-4370 -64 c39 -7 79 -17 91 -22 27
-13 147 -117 175 -152 l21 -27 -26 -49 c-14 -26 -26 -57 -26 -69 0 -30 -10
-27 -76 22 -78 58 -144 130 -204 224 -52 80 -59 98 -37 91 6 -3 44 -11 82 -18z
m4053 -137 c15 -109 7 -138 -43 -158 -19 -8 -65 -15 -103 -15 l-69 0 -13 96
c-7 55 -9 99 -4 104 12 11 196 69 209 66 5 -1 16 -43 23 -93z m-2387 33 c171
-49 368 -92 472 -102 l67 -7 0 -73 c0 -84 -9 -99 -70 -109 -73 -12 -236 16
-488 86 -84 23 -115 37 -124 52 -11 21 -25 197 -16 197 3 0 75 -20 159 -44z
m1939 -102 c6 -14 13 -49 16 -79 6 -48 4 -54 -17 -68 -25 -16 -121 -35 -314
-64 -84 -12 -116 -13 -138 -4 -28 11 -28 11 -25 98 l3 88 195 26 c260 35 268
35 280 3z m-696 -96 c9 -93 8 -93 -182 -92 -117 0 -171 4 -213 17 -72 22 -82
34 -74 91 l7 46 228 0 227 0 7 -62z m-2324 18 c148 -27 302 -97 483 -218 67
-45 87 -64 82 -76 -3 -9 -22 -71 -41 -137 -35 -118 -70 -211 -85 -229 -13 -15
-452 229 -534 297 -39 32 -75 94 -75 128 0 37 71 249 83 249 7 -1 46 -7 87
-14z m1029 -373 c52 -8 112 -22 135 -30 23 -8 99 -30 170 -49 71 -19 136 -40
144 -47 11 -9 13 -27 9 -77 -8 -90 -44 -239 -67 -278 -18 -29 -24 -32 -69 -32
-63 0 -200 24 -279 49 -34 11 -109 29 -165 40 -133 25 -174 42 -183 76 -8 33
10 124 46 234 51 155 41 143 108 136 31 -4 99 -13 151 -22z m2845 -140 c-15
-86 -100 -253 -147 -292 -15 -12 -18 -10 -28 15 -7 16 -14 66 -17 111 l-4 83
32 30 c28 26 142 89 163 90 4 0 5 -17 1 -37z m-1846 -63 c181 -31 212 -44 212
-83 0 -12 -12 -83 -27 -158 l-27 -137 -35 -6 c-104 -17 -336 3 -411 35 l-53
23 7 170 c4 94 10 174 12 178 11 17 153 7 322 -22z m793 -77 c22 -21 22 -24
10 -109 -16 -111 -29 -142 -80 -186 -39 -34 -45 -35 -139 -41 -53 -3 -113 -2
-132 2 -33 6 -35 9 -32 44 2 21 16 97 30 170 l27 132 60 6 c33 4 99 6 147 5
76 -1 90 -4 109 -23z m385 -40 c-14 -95 -65 -240 -92 -262 -25 -20 -109 -39
-121 -28 -3 3 3 38 12 78 16 65 22 144 13 193 -2 16 9 24 67 42 39 13 83 23
99 23 28 1 28 1 22 -46z m355 -3 c10 -14 21 -41 24 -60 l6 -36 -93 -46 c-52
-26 -113 -50 -137 -54 l-44 -7 7 54 c15 111 85 182 175 177 34 -2 48 -9 62
-28z"/>
<path d="M2425 5370 c-27 -5 -93 -30 -145 -56 -76 -38 -110 -62 -171 -123 -91
-92 -121 -150 -127 -244 -4 -63 -1 -74 33 -143 35 -72 136 -196 149 -183 4 3
-3 28 -14 55 -66 153 -86 302 -51 379 25 56 137 157 216 196 57 28 79 33 163
37 152 7 314 -32 577 -138 197 -79 398 -150 487 -170 128 -29 258 -25 333 11
52 24 124 89 145 130 12 23 11 23 -12 -3 -50 -52 -104 -72 -215 -76 -161 -7
-285 25 -683 173 -332 123 -425 150 -560 159 -41 2 -97 1 -125 -4z"/>
<path d="M3891 5245 c196 -145 536 -166 872 -54 48 16 104 38 125 49 40 23 40
23 -90 -21 -167 -56 -267 -73 -443 -72 -185 0 -263 16 -403 83 -98 47 -108 49
-61 15z"/>
<path d="M7717 5133 c-16 -3 -99 -41 -185 -85 -239 -124 -264 -135 -333 -154
-125 -33 -324 -18 -422 33 -16 8 -30 13 -32 11 -12 -11 36 -75 73 -99 65 -41
128 -53 256 -46 181 9 326 58 447 149 43 32 99 68 126 80 61 27 170 34 241 15
28 -8 52 -11 52 -6 0 16 -95 89 -129 99 -37 10 -44 10 -94 3z"/>
<path d="M4948 4911 c-161 -52 -262 -169 -244 -282 l6 -37 -73 -30 c-130 -54
-233 -83 -417 -115 -14 -3 4 -3 40 0 88 6 223 36 328 73 129 47 127 47 142 11
16 -39 76 -94 137 -124 62 -31 113 -46 62 -18 -63 35 -105 92 -133 181 -29 92
-33 148 -11 190 21 40 90 94 168 131 61 28 79 40 60 38 -5 0 -34 -8 -65 -18z"/>
<path d="M4603 4894 c-113 -42 -450 -94 -617 -94 -44 0 -66 -4 -60 -9 5 -5
101 -13 214 -17 299 -10 391 9 500 106 52 45 48 46 -37 14z"/>
<path d="M6623 4687 c42 -111 28 -196 -46 -274 -38 -41 -25 -42 35 -4 32 20
50 41 59 66 l14 37 50 -5 c27 -3 118 -28 200 -55 83 -27 152 -48 154 -46 3 3
-4 17 -16 32 -27 37 -144 85 -278 115 -97 21 -110 26 -116 48 -9 34 -37 86
-51 95 -7 5 -9 2 -5 -9z"/>
<path d="M5205 4561 c-49 -5 -107 -15 -128 -24 -35 -15 -38 -20 -35 -49 3 -29
10 -36 58 -60 116 -56 468 -101 515 -65 16 13 18 18 7 41 -18 41 -92 116 -136
138 -46 24 -145 30 -281 19z"/>
<path d="M2254 4515 c23 -162 115 -444 203 -619 208 -414 554 -786 958 -1027
61 -37 144 -83 185 -103 91 -44 83 -38 -93 66 -270 161 -554 403 -735 627
-234 290 -427 685 -493 1004 -20 98 -36 131 -25 52z"/>
<path d="M7856 2939 c-56 -142 -185 -285 -321 -356 -342 -177 -1100 -242
-1790 -153 -550 71 -1162 222 -1673 412 -74 27 -136 48 -138 46 -7 -8 213
-123 344 -180 327 -143 796 -267 1247 -332 389 -56 971 -87 1253 -68 213 15
368 41 503 85 303 100 485 256 570 488 31 86 36 135 5 58z"/>
<path d="M7778 2349 c-73 -74 -102 -95 -180 -133 -476 -230 -1445 -221 -2662
25 -109 22 -200 38 -202 36 -3 -2 19 -9 48 -15 29 -6 118 -24 198 -41 416 -86
898 -158 1360 -203 77 -7 265 -13 435 -13 270 0 313 2 428 23 156 28 324 81
435 135 135 67 242 178 242 252 0 14 -3 24 -7 23 -5 -1 -47 -41 -95 -89z"/>
</g>
</svg>
